<svg xmlns="http://www.w3.org/2000/svg" width="170.438" height="40" viewBox="0 0 170.438 40">
  <g id="logo_-_dark" data-name="logo - dark" transform="translate(-155.962 -195.761)">
    <g id="Group_9631" data-name="Group 9631" transform="translate(155.962 195.757)">
      <g id="Group_9629" data-name="Group 9629" transform="translate(12.821)">
        <path id="Path_26384" data-name="Path 26384" d="M189.612,195.752v13.866c.05,0,.1.008.15.008A13.723,13.723,0,0,0,203.486,195.9c0-.051-.007-.1-.008-.151Z" transform="translate(-189.612 -195.749)" fill="#f7be00"/>
        <path id="Path_26385" data-name="Path 26385" d="M203.486,263.01c-.05,0-.1-.008-.15-.008a13.723,13.723,0,0,0-13.723,13.723c0,.051.007.1.008.151h13.865Z" transform="translate(-189.612 -236.873)" fill="#965ec7"/>
      </g>
      <g id="Group_9630" data-name="Group 9630" transform="translate(0 13.056)">
        <path id="Path_26386" data-name="Path 26386" d="M155.962,243.226h13.866c0-.05.008-.1.008-.15a13.723,13.723,0,0,0-13.723-13.723c-.05,0-.1.007-.15.008Z" transform="translate(-155.962 -229.352)" fill="#3d7cc9"/>
        <path id="Path_26387" data-name="Path 26387" d="M223.27,229.352c0,.05-.008.1-.008.15a13.723,13.723,0,0,0,13.724,13.724c.05,0,.1-.007.15-.008V229.352Z" transform="translate(-197.622 -229.352)" fill="#ff8300"/>
      </g>
    </g>
    <g id="Group_9633" data-name="Group 9633" transform="translate(207.515 207.127)">
      <g id="Group_9632" data-name="Group 9632">
        <path id="Path_26388" data-name="Path 26388" d="M283.157,243.7V229.34c2.051-.021,4.081,0,6.132,0a4.957,4.957,0,0,1,5.106,5.229,4.885,4.885,0,0,1-5.106,5.066h-3.056v4.06Zm6.132-6.686a2.306,2.306,0,0,0,2.174-2.522,2.25,2.25,0,0,0-2.174-2.461c-1.044-.021-2.071,0-3.118,0v4.983Z" transform="translate(-283.157 -229.216)" fill="#fff"/>
        <path id="Path_26389" data-name="Path 26389" d="M319.833,239.663a3.432,3.432,0,0,1,2.112.636l-.636,2.4a3.11,3.11,0,0,0-1.845-.533,2.21,2.21,0,0,0-2.318,2.338v5.353h-2.81v-6.969c0-.82-.082-1.353-.984-1.21v-1.764c1.436-.328,3.548-.328,3.712,1.436a2.793,2.793,0,0,1,2.769-1.685Z" transform="translate(-301.102 -235.355)" fill="#fff"/>
        <path id="Path_26390" data-name="Path 26390" d="M338.346,229.352a1.652,1.652,0,1,1-1.723,1.641,1.588,1.588,0,0,1,1.723-1.641Zm1.391,14.376h-2.87v-9.762h2.87Z" transform="translate(-314.929 -229.229)" fill="#fff"/>
        <path id="Path_26391" data-name="Path 26391" d="M351.1,246.9c.021.82.8,1.189,1.62,1.169.841,0,1.682-.246,1.7-1.13,0-.8-.717-.882-1.415-.984-1.99-.267-4.573-.533-4.573-2.932,0-2.215,1.826-3.26,4.245-3.26,2.358,0,4.388,1.067,4.286,3.158h-2.707c-.021-.717-.717-1-1.538-1s-1.517.369-1.517,1.025c0,.738.783.841,1.415.9,2.215.267,4.737.451,4.675,3.1-.062,2.358-2.215,3.24-4.45,3.24s-4.512-.657-4.614-3.281Z" transform="translate(-321.829 -235.417)" fill="#fff"/>
        <path id="Path_26392" data-name="Path 26392" d="M377.016,235.968h3.218v2.153h-3.218v3.835c0,2.051,1.7,2.153,3.343,1.559l.266,2.174c-3.4.944-6.419.39-6.419-3.671v-3.9l-1.866-.184v-1.969h2.071l.308-3.076h2.3Z" transform="translate(-336.156 -231.333)" fill="#fff"/>
        <path id="Path_26393" data-name="Path 26393" d="M400.671,251.271c-1.251,3.218-2.543,4.922-6.132,3.609l.308-1.99c1.62.718,2.461.1,3.035-1.538l.369-1.025-4.327-9.577v-.328h3.015l1.333,3.343,1.291,3.652h.062l1.13-3.63,1.189-3.363h2.912v.328Z" transform="translate(-348.981 -235.808)" fill="#fff"/>
        <path id="Path_26394" data-name="Path 26394" d="M430.854,249.976v-5.721a1.862,1.862,0,0,0-1.866-2.112,2.057,2.057,0,0,0-2.091,2.174v5.659h-2.87v-6.83c0-.984,0-1.292-.944-1.292v-1.784c1.312-.226,3.61-.451,3.61,1.333a3.423,3.423,0,0,1,3.158-1.538c2.789,0,3.9,1.928,3.9,4.389v5.721Z" transform="translate(-366.309 -235.477)" fill="#fff"/>
        <path id="Path_26395" data-name="Path 26395" d="M473.891,229.049c2.892,0,5.967,1.558,6.623,5.106h-2.973a3.577,3.577,0,0,0-3.652-2.338c-2.543,0-4.245,1.845-4.245,4.573a4.25,4.25,0,0,0,4.225,4.512,3.574,3.574,0,0,0,3.732-2.585h2.957c-.615,3.794-3.671,5.373-6.665,5.373a7.324,7.324,0,1,1,0-14.643Z" transform="translate(-392.141 -229.048)" fill="#fff"/>
        <path id="Path_26396" data-name="Path 26396" d="M507,250.131a3.359,3.359,0,0,1-3.589-3.1c-.1-2.42,1.641-3.565,3.835-3.565a5.032,5.032,0,0,1,2.625.636v-.677c0-1.21-1.478-1.415-2.461-1.415a5.7,5.7,0,0,0-2.851.595l-.37-2.051a8.95,8.95,0,0,1,3.712-.738c2.543,0,4.717.841,4.717,3.692v3.565c0,.841-.021,1.333.923,1.271l.021,1.6c-1.5.328-3.138.246-3.138-1.517A3.738,3.738,0,0,1,507,250.131Zm2.809-4.245a3.728,3.728,0,0,0-2.051-.574c-.9.062-1.641.574-1.538,1.538a1.237,1.237,0,0,0,1.353,1.066c.944,0,2.132-.471,2.235-1.517Z" transform="translate(-414.042 -235.447)" fill="#fff"/>
        <path id="Path_26397" data-name="Path 26397" d="M536.6,239.663a3.432,3.432,0,0,1,2.112.636l-.636,2.4a3.107,3.107,0,0,0-1.845-.533,2.21,2.21,0,0,0-2.318,2.338v5.353h-2.81v-6.969c0-.82-.082-1.353-.984-1.21v-1.764c1.436-.328,3.548-.328,3.712,1.436a2.793,2.793,0,0,1,2.769-1.685Z" transform="translate(-429.92 -235.355)" fill="#fff"/>
        <path id="Path_26398" data-name="Path 26398" d="M561.672,245.6h-6.706c.1,1.537,1.251,2.132,2.625,2.235a7.02,7.02,0,0,0,1.312-.021,8.6,8.6,0,0,0,2.358-.595l.328,2.091a9.131,9.131,0,0,1-3.835.882c-3.322.062-5.66-1.969-5.66-5.312a4.906,4.906,0,0,1,5.188-5.066C560.893,239.816,562.43,242.236,561.672,245.6Zm-6.685-1.845h4.348c.062-1.292-.984-1.739-2.051-1.739a2.2,2.2,0,0,0-2.3,1.741Z" transform="translate(-442.976 -235.447)" fill="#fff"/>
      </g>
    </g>
  </g>
</svg>